# xmcd
# Track frame offsets:
# 150
# 12505
# 24675
# 38250
# 50895
# 60032
# 71372
# 84305
# 96050
# 105502
# 116525
# 128875
# 142987
#
# Disc length: 2055 seconds
# Revision: 2
# Processed by: cddbd v1.5.2PL0 Copyright (c) Steve Scherf et al.
# Submitted via: VisiTrax 2.11.3.279 - For more info visit www.synapsa.com
#
DISCID=9c08050d
DTITLE=Slim Dusty - Travellin' Guitar
DYEAR=1961
DGENRE=Australian Country
TTITLE0=Rovin' Gambler
TTITLE1=Bumming Around
TTITLE2=Whiskey Blues
TTITLE3=Can I Sleep In Your Barn Tonight Mister
TTITLE4=Three Times Seven
TTITLE5=Little Blossom
TTITLE6=Travellin' Guitar
TTITLE7=Down The Track
TTITLE8=I'll Be A Batchelor Till I Die
TTITLE9=Somebody's Mother Tonight
TTITLE10=Spending My Life In The Sun
TTITLE11=Winter Winds
TTITLE12=Whiplash
EXTD=1961 1962 EMI Music Australia 1991 EMI Music Australia
EXTT0=
EXTT1=
EXTT2=
EXTT3=
EXTT4=
EXTT5=
EXTT6=
EXTT7=
EXTT8=
EXTT9=
EXTT10=
EXTT11=
EXTT12=
PLAYORDER=
